<svg t="1731510217339" class="icon" viewBox="0 0 1024 1024" version="1.1" xmlns="http://www.w3.org/2000/svg" p-id="1091" width="200" height="200"><path d="M459.946667 592.213333l-96.213334 25.770667 55.210667 206.08 98.133333-26.325333a26.368 26.368 0 0 0 18.645334-32.298667l-1.28-4.864a18.218667 18.218667 0 0 0-13.952-13.141333 18.218667 18.218667 0 0 1-8.448-31.445334 18.218667 18.218667 0 0 0 5.546666-18.346666l-5.546666-20.565334a16.384 16.384 0 0 0-12.544-11.818666l-2.517334-0.512a15.274667 15.274667 0 0 1-5.802666-27.392 15.274667 15.274667 0 0 0 5.845333-16.341334l-2.346667-8.746666a28.330667 28.330667 0 0 0-34.688-20.053334z" fill="#E8CB26" p-id="1092"></path><path d="M83.328 560.64a192 192 0 0 1 135.765333-235.178667l55.466667-14.890666a623.573333 623.573333 0 0 0 194.005333-89.941334c1.450667-0.981333-2.133333 1.493333 5.674667-4.906666 15.36-12.501333 15.914667-13.056 29.098667-27.861334 6.698667-7.509333 30.933333-39.381333 79.36-103.168 17.493333-23.082667 39.850667-44.032 66.133333-51.072 103.04-27.605333 206.933333 112.64 258.730667 306.133334 51.84 193.450667 32.042667 366.848-70.997334 394.453333-26.282667 7.082667-56.106667 0.128-82.816-11.093333-73.813333-31.061333-110.762667-46.549333-120.32-49.706667a174.165333 174.165333 0 0 0-39.125333-9.6c-9.941333-1.621333-5.632-1.28-7.338667-1.408a623.658667 623.658667 0 0 0-182.186666 11.690667c24.490667 46.506667 44.330667 97.706667 55.381333 138.922666l11.008 41.216a106.666667 106.666667 0 1 1-206.08 55.210667l-5.418667-20.394667a638.805333 638.805333 0 0 0-65.28-156.544l-2.688-4.608c-12.714667-21.845333-28.842667-41.472-45.013333-61.098666-13.994667-17.024-28.032-34.048-39.808-52.565334-10.325333-16.128-18.346667-34.133333-23.552-53.632z" fill="#37455B" p-id="1093"></path><path d="M866.346667 350.805333c45.738667 170.666667 27.477333 323.925333-40.832 342.186667-68.266667 18.346667-160.682667-105.216-206.421334-275.925333-45.781333-170.709333-27.477333-323.925333 40.789334-342.229334 68.266667-18.346667 160.725333 105.258667 206.506666 275.968z" fill="#2697E8" p-id="1094"></path><path d="M637.141333 268.373333c2.602667-7.68 10.197333-11.818667 18.261334-11.349333l188.885333 11.349333 44.16 164.864-157.866667 104.234667c-6.784 4.437333-15.445333 4.608-21.546666-0.682667-16.64-14.506667-49.450667-50.901333-69.333334-125.269333-19.925333-74.325333-9.813333-122.24-2.56-143.146667z" fill="#FFFFFF" p-id="1095"></path><path d="M907.562667 339.754667c12.202667 45.525333 3.626667 87.381333-19.114667 93.44-22.784 6.101333-51.114667-25.856-63.317333-71.338667-12.202667-45.525333-3.626667-87.381333 19.157333-93.482667 22.741333-6.101333 51.072 25.856 63.274667 71.381334z" fill="#2697E8" p-id="1096"></path><path d="M190.378667 465.664m-41.212836 11.042946a42.666667 42.666667 0 1 0 82.425671-22.085892 42.666667 42.666667 0 1 0-82.425671 22.085892Z" fill="#26E881" p-id="1097"></path><path d="M182.314667 600.32a42.666667 42.666667 0 0 1 30.165333-52.224l41.216-11.050667a42.666667 42.666667 0 1 1 22.101333 82.432l-41.258666 11.050667a42.666667 42.666667 0 0 1-52.224-30.208z" fill="#FFFFFF" p-id="1098"></path><path d="M385.408 369.237333a42.666667 42.666667 0 0 1 52.266667 30.165334l-41.216 11.050666-41.216 11.050667a42.666667 42.666667 0 0 1 30.165333-52.266667z m11.050667 41.216l-41.216 11.050667 33.109333 123.605333a42.666667 42.666667 0 0 0 82.432-22.058666l-33.109333-123.648-41.216 11.050666z" fill="#26E881" p-id="1099"></path></svg>